<svg width="90" height="90" viewBox="0 0 90 90" xmlns="http://www.w3.org/2000/svg">
    <g fill-rule="nonzero" fill="none">
        <path d="M31.728 90C14.225 89.952 0 75.777 0 58.36V45.175a2.637 2.637 0 0 1 2.637-2.637h8.086a5.273 5.273 0 0 1 5.273 5.274v10.345c0 8.71 6.955 15.936 15.664 16.02 8.795.086 15.977-7.043 15.977-15.819v-2.636a2.637 2.637 0 0 1 2.637-2.637H60.82a2.637 2.637 0 0 1 2.637 2.637v2.368c0 17.451-14.278 31.957-31.73 31.909z" fill="#FBC8A1"/>
        <path d="M60.82 53.086H50.274a2.637 2.637 0 0 0-2.637 2.637v2.636c0 3.227-.972 6.23-2.637 8.735v19.965C55.87 81.964 63.457 70.81 63.457 58.09v-2.368a2.637 2.637 0 0 0-2.637-2.637z" fill="#F7B571"/>
        <path d="M87.363 47.46h-8.086a5.273 5.273 0 0 1-5.273-5.273V31.842c0-8.71-6.955-15.936-15.664-16.02-8.795-.086-15.977 7.043-15.977 15.819v2.636a2.637 2.637 0 0 1-2.636 2.637H29.18a2.637 2.637 0 0 1-2.637-2.637V31.91C26.543 14.458 40.821-.048 58.273 0 75.774.048 90 14.223 90 31.64v13.184a2.637 2.637 0 0 1-2.637 2.637z" fill="#FBC8A1"/>
        <path d="M58.272 0A30.99 30.99 0 0 0 45 2.941v19.965c2.863-4.307 7.779-7.139 13.34-7.085 8.71.085 15.664 7.312 15.664 16.021v10.345a5.273 5.273 0 0 0 5.273 5.274h8.086A2.637 2.637 0 0 0 90 44.824V31.641C90 14.223 75.775.048 58.272 0z" fill="#F7B571"/>
        <path d="M10.547 26.367C4.73 26.367 0 21.636 0 15.82 0 10.005 4.731 5.273 10.547 5.273c5.815 0 10.547 4.732 10.547 10.547 0 5.816-4.732 10.547-10.547 10.547zM79.453 84.727c-5.815 0-10.547-4.732-10.547-10.547 0-5.816 4.732-10.547 10.547-10.547C85.27 63.633 90 68.364 90 74.18c0 5.815-4.731 10.547-10.547 10.547z" fill="#60C9BD"/>
        <path d="M31.693 79.453c-11.64-.067-20.97-9.686-20.97-21.326V42.54h13.183a2.637 2.637 0 0 1 2.637 2.637v13.071c0 2.87 2.246 5.298 5.114 5.384a5.28 5.28 0 0 0 5.433-5.272V31.873c0-11.64 9.33-21.259 20.97-21.326 11.688-.067 21.217 9.421 21.217 21.094v15.82H66.094a2.637 2.637 0 0 1-2.637-2.637V31.753c0-2.87-2.245-5.298-5.114-5.384a5.28 5.28 0 0 0-5.433 5.272v26.718c0 11.673-9.53 21.161-21.217 21.094z" fill="#FF845D"/>
        <path d="M58.06 10.547c-4.951.029-9.485 1.787-13.06 4.693v59.573c4.82-3.87 7.91-9.807 7.91-16.454V31.641a5.28 5.28 0 0 1 5.433-5.271c2.869.085 5.114 2.513 5.114 5.383v13.071a2.637 2.637 0 0 0 2.637 2.637h13.183V31.64c0-11.673-9.53-21.161-21.217-21.094z" fill="#FF6635"/>
    </g>
</svg>
