<svg width="70" height="90" viewBox="0 0 70 90" xmlns="http://www.w3.org/2000/svg">
    <g fill-rule="nonzero" fill="none">
        <path d="M34.684 13.25c-9.587 0-18.302 3.904-24.592 10.193a2.484 2.484 0 1 0 3.52 3.497c5.397-5.397 12.827-8.728 21.072-8.728 8.246 0 15.676 3.33 21.073 8.728a2.484 2.484 0 1 0 3.52-3.497c-6.29-6.289-15.005-10.193-24.593-10.193z" fill="#6680FF"/>
        <path d="M34.684 26.5a21.514 21.514 0 0 0-15.23 6.306 2.484 2.484 0 1 0 3.52 3.496 16.47 16.47 0 0 1 11.71-4.84 16.47 16.47 0 0 1 11.71 4.84 2.484 2.484 0 1 0 3.496-3.496A21.456 21.456 0 0 0 34.684 26.5zM34.684 0C21.44 0 9.416 5.37.73 14.056a2.49 2.49 0 1 0 3.52 3.52C12.044 9.784 22.782 4.964 34.685 4.964c11.904 0 22.642 4.82 30.435 12.614a2.49 2.49 0 1 0 3.52-3.52C59.954 5.37 47.93 0 34.685 0z" fill="#6680FF"/>
        <path d="M14.104 48.848c-5.681 5.682-5.681 14.894 0 20.576L34.68 90l20.576-20.576c5.682-5.682 5.682-14.894 0-20.576-5.682-5.681-14.894-5.681-20.576 0-5.682-5.681-14.894-5.681-20.576 0z" fill="#F73"/>
        <path d="m34.68 89.77 20.576-20.576c5.682-5.682 5.682-14.894 0-20.576-2.373-2.373-7.082-4.28-11.863-3.939-3 .215-5.893 1.608-8.679 4.179L34.68 89.77z" fill="#EC5F19"/>
    </g>
</svg>
