<svg width="90" height="90" viewBox="0 0 90 90" xmlns="http://www.w3.org/2000/svg">
    <g fill-rule="nonzero" fill="none">
        <path d="M82.09 0H47.637v13.692c.855-.22 1.74-.333 2.636-.333 5.815 0 10.547 4.73 10.547 10.547s-4.732 10.547-10.547 10.547c-.896 0-1.781-.113-2.636-.332v8.242h12.55c2.254 0 3.435 2.739 1.972 4.39a5.21 5.21 0 0 0-1.339 3.52 5.279 5.279 0 0 0 5.274 5.274 5.279 5.279 0 0 0 5.273-5.274 5.21 5.21 0 0 0-1.339-3.52c-1.507-1.698-.298-4.39 1.973-4.39H90V7.91C90 3.548 86.452 0 82.09 0z" fill="#F73"/>
        <path d="M50.273 18.633a5.286 5.286 0 0 0-3.522 1.336c-1.68 1.507-4.388.314-4.388-1.97V0H7.91C3.548 0 0 3.548 0 7.91v34.453h13.694a10.52 10.52 0 0 1-.335-2.636c0-5.817 4.733-10.547 10.547-10.547 5.814 0 10.547 4.73 10.547 10.547 0 .896-.113 1.781-.335 2.636h8.245v-12.55c0-2.284 2.708-3.476 4.388-1.97a5.287 5.287 0 0 0 3.522 1.337 5.279 5.279 0 0 0 5.274-5.274 5.279 5.279 0 0 0-5.274-5.273z" fill="#FABE2C"/>
        <path d="M39.727 55.547c.896 0 1.781.113 2.636.335v-8.245h-12.55c-2.27 0-3.48-2.692-1.972-4.39a5.21 5.21 0 0 0 1.339-3.52 5.279 5.279 0 0 0-5.274-5.274 5.279 5.279 0 0 0-5.273 5.274 5.21 5.21 0 0 0 1.339 3.52c1.507 1.698.298 4.39-1.973 4.39H0V82.09C0 86.452 3.548 90 7.91 90h34.453V76.306c-.855.221-1.74.335-2.636.335-5.815 0-10.547-4.73-10.547-10.547s4.732-10.547 10.547-10.547z" fill="#00AA95"/>
        <path d="M76.306 47.637c.221.855.335 1.74.335 2.636 0 5.817-4.733 10.547-10.547 10.547-5.814 0-10.547-4.73-10.547-10.547 0-.901.154-1.778.375-2.636h-8.285v12.55c0 2.27-2.69 3.479-4.388 1.972a5.236 5.236 0 0 0-3.522-1.339 5.279 5.279 0 0 0-5.274 5.274 5.279 5.279 0 0 0 5.274 5.273 5.236 5.236 0 0 0 3.522-1.339c1.701-1.504 4.388-.298 4.388 1.973V90H82.09c4.362 0 7.91-3.548 7.91-7.91V47.637H76.306z" fill="#6680FF"/>
    </g>
</svg>
