<svg width="540" height="343" viewBox="0 0 540 343" xmlns="http://www.w3.org/2000/svg">
    <defs>
        <radialGradient cx="50%" cy="50.255%" fx="50%" fy="50.255%" r="49.745%" gradientTransform="matrix(0 1 -1.51775 0 1.263 .003)" id="ar7qz4zzba">
            <stop stop-color="#F7F7F7" offset="0%"/>
            <stop stop-color="#171616" offset="100%"/>
        </radialGradient>
    </defs>
    <g transform="translate(2 2)" fill="none" fill-rule="evenodd">
        <rect stroke="url(#ar7qz4zzba)" stroke-width="3" fill="#000" width="536" height="339" rx="24"/>
        <g fill-rule="nonzero">
            <path d="M126.09 34H91.637v13.692c.855-.22 1.74-.333 2.636-.333 5.815 0 10.547 4.73 10.547 10.547s-4.732 10.547-10.547 10.547c-.896 0-1.781-.113-2.636-.332v8.242h12.55c2.254 0 3.435 2.739 1.972 4.39a5.21 5.21 0 0 0-1.339 3.52 5.279 5.279 0 0 0 5.274 5.274 5.279 5.279 0 0 0 5.273-5.274 5.21 5.21 0 0 0-1.339-3.52c-1.507-1.698-.298-4.39 1.973-4.39H134V41.91c0-4.362-3.548-7.91-7.91-7.91z" fill="#FD884E"/>
            <path d="M94.273 52.633a5.286 5.286 0 0 0-3.522 1.336c-1.68 1.507-4.388.314-4.388-1.97V34H51.91C47.548 34 44 37.548 44 41.91v34.453h13.694a10.52 10.52 0 0 1-.335-2.636c0-5.817 4.733-10.547 10.547-10.547 5.814 0 10.547 4.73 10.547 10.547 0 .896-.113 1.781-.335 2.636h8.245v-12.55c0-2.284 2.708-3.476 4.388-1.97a5.287 5.287 0 0 0 3.522 1.337 5.279 5.279 0 0 0 5.274-5.274 5.279 5.279 0 0 0-5.274-5.273z" fill="#FECD55"/>
            <path d="M83.727 89.547c.896 0 1.781.113 2.636.335v-8.245h-12.55c-2.27 0-3.48-2.692-1.972-4.39a5.21 5.21 0 0 0 1.339-3.52 5.279 5.279 0 0 0-5.274-5.274 5.279 5.279 0 0 0-5.273 5.274 5.21 5.21 0 0 0 1.339 3.52c1.507 1.698.298 4.39-1.973 4.39H44v34.453c0 4.362 3.548 7.91 7.91 7.91h34.453v-13.694c-.855.221-1.74.335-2.636.335-5.815 0-10.547-4.73-10.547-10.547s4.732-10.547 10.547-10.547z" fill="#26DCC6"/>
            <path d="M120.306 81.637c.221.855.335 1.74.335 2.636 0 5.817-4.733 10.547-10.547 10.547-5.814 0-10.547-4.73-10.547-10.547 0-.901.154-1.778.375-2.636h-8.285v12.55c0 2.27-2.69 3.479-4.388 1.972a5.236 5.236 0 0 0-3.522-1.339 5.279 5.279 0 0 0-5.274 5.274 5.279 5.279 0 0 0 5.274 5.273 5.236 5.236 0 0 0 3.522-1.339c1.701-1.504 4.388-.298 4.388 1.973V124h34.453c4.362 0 7.91-3.548 7.91-7.91V81.637h-13.694z" fill="#798FFF"/>
        </g>
        <text font-family="GolosText-Medium, Golos Text" font-size="52" font-weight="400" fill="#FFF" transform="translate(44 34)">
                                            <tspan x="128" y="65">Manage</tspan>
                                        </text>
        <text font-family="Nunito-Regular, Nunito" font-size="22" fill="#C8CBD3" transform="translate(44 34)">
                                        <tspan x="0" y="173">Streamline your project management with </tspan>
                                        <tspan x="0" y="203">your own Dashboard that keeps your tasks, </tspan>
                                        <tspan x="0" y="233">meetings, and deadlines organised at one </tspan>
                                        <tspan x="0" y="263">place</tspan>
                                    </text>
        <path stroke="#EBEBEB" opacity=".163" d="M44 154.5h447"/>
    </g>
</svg>
