<svg width="253" height="329" viewBox="0 0 253 329" xmlns="http://www.w3.org/2000/svg">
    <defs>
        <linearGradient x1="73.88%" y1="100%" x2="26.12%" y2="0%" id="2e55bxe25a">
            <stop stop-color="#4FD8CC" offset="0%"/>
            <stop stop-color="#5C88FF" offset="100%"/>
        </linearGradient>
        <linearGradient x1="73.88%" y1="100%" x2="26.12%" y2="0%" id="ao1xdw79qb">
            <stop stop-color="#4FD8CC" offset="0%"/>
            <stop stop-color="#5C88FF" offset="100%"/>
        </linearGradient>
        <linearGradient x1="72.14%" y1="100%" x2="27.86%" y2="0%" id="6v676j71bc">
            <stop stop-color="#4FD8CC" offset="0%"/>
            <stop stop-color="#5C88FF" offset="100%"/>
        </linearGradient>
        <linearGradient x1="56.345%" y1="100%" x2="43.655%" y2="0%" id="b8a3l85whd">
            <stop stop-color="#4FD8CC" offset="0%"/>
            <stop stop-color="#5C88FF" offset="100%"/>
        </linearGradient>
        <linearGradient x1="55.374%" y1="100%" x2="44.626%" y2="0%" id="24cvi284te">
            <stop stop-color="#4FD8CC" offset="0%"/>
            <stop stop-color="#5C88FF" offset="100%"/>
        </linearGradient>
    </defs>
    <g fill="none" fill-rule="evenodd">
        <path d="M3.389 327.41c-3.243 1.626 57.75.772 68.72.686 65.45-.505 91.974-.981 91.932-2.846.032-1.91-50.147-.713-116.642-.309-40.606-.006-41.4.213-44.01 2.468" fill="#6A5F73"/>
        <path d="M161.17 26.05c-21.793.76-42.957 12.225-55.495 30.062C97.133 68.264 92.2 83.333 80.68 92.714c-9.267 7.547-21.553 10.316-31.515 16.918-11.627 7.705-19.248 17.425-22.565 31.281-7.488 31.287 3.35 69.968 20.554 96.45 11.215 17.262 28.52 29.932 47.969 36.989 15.034 5.457 31.264 5.835 47.07 5.23 15.609-.597 32.693-2.966 47.014-9.603 8.347-3.868 15.826-9.395 22.266-15.943 13.896-14.128 22.37-32.034 29.414-50.289 8.354-21.645 12.315-42.769 12.105-66.153-.192-21.505-2.418-42.752-11.056-62.682-3.131-7.223-6.553-14.38-11.195-20.739-9.112-12.481-22.656-17.8-36.86-22.646-10.514-3.588-21.556-5.866-32.711-5.477" fill="#2D2D2D"/>
        <path d="M20.347 326.091c-3.65 1.679 64.919.641 77.25.527 73.576-.691 103.395-1.25 103.351-3.165.042-1.96-56.37-.601-131.121-.01-45.646.098-46.54.326-49.48 2.648" fill="#6A5F73"/>
        <path d="M197.051 324.833c-.499.703-2.657.593-3.368.647-2.36.182-4.73.226-7.096.247-1.754 0-3.505.144-5.258-.017-.865-.08-1.729-.23-2.556-.508-.838-.28-1.595-.641-2.388-1.044-.059-.028-.117-.058-.18-.058-.217.002-.283.296-.432.457-.166.182-.442.184-.685.174-.553-.024-1.092-.08-1.645-.082-.945-.002-1.895-.004-2.839-.108-.278-.032-.579-.08-.781-.28-.182-.183-.25-.454-.297-.712-.527-2.916.603-5.565.918-8.405.112-1.01.01-1.172.96-1.29 1.587-.198 3.484-.517 4.754-1.589 1.162-.977 1.74-2.25 2.308-3.695.988-2.508 4.578-3.247 6.894-3.065 3.543.28 4.759 3.055 5.352 6.298.198 1.08.499 2.347 1.206 3.21.866 1.058 2.28 1.896 3.332 2.759.322.264.645.53.928.837 1.368 1.48 2.151 4.431.873 6.224" fill="#564242"/>
        <path d="M195.502 316.967c-5.776-2.236-13.14-1.787-18.58 1.208-.618.34-.197 1.432.484 1.182 2.855-1.054 5.712-1.877 8.764-1.998 3.065-.12 5.942.467 8.868 1.336 1.097.327 1.496-1.328.464-1.728" fill="#362A29"/>
        <path d="M193.683 325.48c.711-.054 2.87.056 3.368-.647.39-.547.587-1.202.635-1.889-.194.086-.388.18-.575.265-1.472.667-3.125.747-4.736.783-2.51.058-5.021.036-7.531.014-2.15-.018-4.342-.044-6.382-.745-.973-.337-1.895-.822-2.877-1.132-1.264-.403-2.588-.507-3.895-.687-.577-.08-1.492-.439-2.25-.525-.08.861-.076 1.735.086 2.632.047.258.115.529.297.711.202.2.503.249.781.28.944.105 1.894.107 2.84.109.552.002 1.091.058 1.644.082.243.01.52.008.685-.174.149-.16.215-.455.431-.457.064 0 .122.03.18.058.794.403 1.551.763 2.389 1.044.827.278 1.69.428 2.556.508 1.753.16 3.504.017 5.258.017 2.366-.02 4.736-.065 7.096-.247" fill="#242929"/>
        <path d="M191.992 204.699c-3.516-26.245-16.623-91.536-16.623-91.536l-51.786 19.03s-18.814 48.438-38.729 93.982c9.317 6.398 18.474 13.048 27.22 20.243 17.632-37.923 34.979-75.696 35.804-80.105 1.599-8.53 10.228 47.9 12.466 61.68 2.238 13.78 6.075 84.32 7.353 86.288 1.278 1.969 25.573-1.968 27.811-5.577 2.238-3.61 0-77.758-3.516-104.005" fill="#3C4140"/>
        <path d="M155.12 133.427c-.005-.719-1.087-.72-1.087 0-.004 2.22.373 4.476.076 6.686-.314 2.355-1.633 3.95-3.198 5.538.117-4.219.055-8.45-.052-12.598-.018-.714-1.092-.718-1.084 0 .053 4.033.015 8.066-.132 12.096-.146 4.03-.57 8.044-.725 12.07-.024.616.98.78 1.07.149.483-3.397.747-6.861.88-10.34.166.036.35.001.514-.15 1.695-1.565 3.236-3.363 3.735-5.71.539-2.543.028-5.174.004-7.74" fill="#242929"/>
        <path d="M48.288 303.127s-2.642.339-4.293 2.372c-1.65 2.033-6.933 6.776-13.206 10.504-6.274 3.728-8.915 6.1-6.934 8.81 1.981 2.712 10.565.34 15.848 0 5.283-.338 8.585-1.354 9.245-2.372.66-1.015 1.32-1.694 1.981-1.694.66 0 1.32 1.356 2.311 1.356.99 0 7.924-.339 8.915-2.033.99-1.695 1.65-16.943 1.65-16.943H48.289" fill="#362A29"/>
        <path d="M61.215 316.93c-1.26.594-2.673.716-4.05.874-4.396.505-7.963 1.907-12.18 3.281-4.746 1.549-9.581 2.785-14.527 3.39-1.517.186-3.677.627-5.102.06-1.117-.445-1.58-1.186-2.098-1.96-.15.744.041 1.479.597 2.238 1.981 2.712 10.565.34 15.848 0 5.283-.338 8.585-1.354 9.245-2.372.66-1.015 1.32-1.694 1.981-1.694.66 0 1.32 1.356 2.311 1.356.99 0 7.924-.339 8.915-2.033.296-.507.563-2.23.792-4.395-.5.519-1.086.951-1.732 1.256" fill="#242929"/>
        <path d="M82.544 231.008c-14.5 33.108-29.52 64.503-38.238 74.415 0 0 28.45 16.403 31.647 14.763 1.532-.785 17.447-33.807 33.786-68.934-8.735-7.197-17.885-13.848-27.195-20.244M141.164 129.463s23.336-.64 31.648-9.588c8.31-8.949-22.98-60.881-22.98-60.881l-5.47-5.276s-2.877-1.279-7.992-.32c-5.115.959-11.508 11.186-11.508 11.186l3.197 10.867 13.105 54.012" fill="#242929"/>
        <path d="M142.284 53.238s5.754 21.414 5.434 44.105c0 0-17.263-20.774-20.779-33.238l-2.237-.64s-3.516 3.197-2.238 5.434c0 0-2.877 4.155-5.114 7.03-2.238 2.877-13.746 21.734-13.746 25.569 0 3.835 31.327 29.723 31.327 29.723s8.631 8.63 10.87 8.31c2.237-.32 5.433-19.816 5.433-19.816s7.672 17.578 10.23 19.176c2.557 1.598 25.573-12.464 25.892-13.742.32-1.279-10.272-26.513-10.59-29.39-.321-2.876-.095-10.828.544-11.467.64-.64 12.284-1.011 18.038-2.29 2.927-.65 8.862.016 14.506.682 5.451.642 10.63 1.286 12.564.743 3.937-1.105 4.258-15.487 4.258-15.487l-6.073-6.712-13.107-.958s-3.198-2.557-5.755-.96c0 0-19.819-2.236-25.573-4.154-5.754-1.918-7.032-2.557-9.27-2.237-2.238.32-18.541 2.556-18.541 2.556s-.319-2.556-6.073-2.237" fill="#FFFFFE"/>
        <path d="M158.016 75.123c-.178-1.23-.693-2.007-1.753-2.659-1.529-.94-3.186-1.727-4.809-2.528 1.08-.534 2.278-1.121 3.012-1.891.797-.839.214-1.813-.189-2.698a91.836 91.836 0 0 0-5.157-9.694c-.328-.54-1.164-.056-.85.496a117.131 117.131 0 0 1 3.721 7.107c.383.8 1.89 3.136 1.417 4.06-.178.346-1.168.7-1.545.918-.691.401-1.388.79-2.09 1.174-.394.218-.41.858 0 1.071 1.635.845 3.27 1.69 4.895 2.554 1.05.559 1.801.95 2.084 2.176.198.857.168 1.843.204 2.724a49.456 49.456 0 0 1-.837 11.44c-1.417 7.377-4.29 14.38-5.959 21.687-.174.758.898 1.042 1.156.319 1.435-4.036 2.445-8.269 3.64-12.382 1.153-3.963 2.283-7.936 2.842-12.034.527-3.853.775-7.974.218-11.84M148.197 106.023a279.165 279.165 0 0 0-9.169-11.851 259.855 259.855 0 0 0-4.874-5.782c-.76-.876-1.803-1.739-2.396-2.725-.912-1.512-.093-3.483.242-5.068.086-.407-.286-.946-.755-.756a17.917 17.917 0 0 0-3.55 1.915c-2.09-4.449-3.724-9.068-5.046-13.803-.162-.58-1.034-.337-.9.249 1.165 5.107 2.965 10.024 5.196 14.76.126.27.573.395.816.214a16.985 16.985 0 0 1 2.73-1.67c-.444 1.585-.93 3.354.06 4.674 1.718 2.287 3.811 4.365 5.648 6.562a276.61 276.61 0 0 1 10.902 13.921c.477.652 1.579.02 1.096-.64" fill="#DAE2DF"/>
        <path d="m151.192 119.974.042-.259.088.202a.311.311 0 0 1-.13.057" fill="#79807E"/>
        <path d="M151.15 119.977a.269.269 0 0 1-.208-.104c-2.595-3.002-2.11-7.429-2.329-11.115-.194-3.27-.547-6.531-1.051-9.768.166-.189.336-.379.51-.571a98.3 98.3 0 0 1 1.09 9.097c.155 2.11.159 4.23.325 6.34.156 1.989.563 4.015 1.903 5.566.15.173.074.392-.068.495l-.088-.202-.042.259a.27.27 0 0 1-.042.003M178.174 83.2a.294.294 0 0 1-.225-.11c-3.07-3.542-4.622-8.148-6.125-12.51l.471-.546.094.27c1.523 4.39 3.116 8.705 6.037 12.382.186.234-.024.513-.252.513" fill="#ECEFEB"/>
        <path d="M176.741 111.903a49.06 49.06 0 0 0-11.324 5.747c-.593.404-.04 1.372.567.97a52.411 52.411 0 0 1 11.078-5.556c.719-.262.414-1.42-.32-1.16" fill="#DAE2DF"/>
        <path d="M195.172 233.452c-1.85-8.189-16.097-24.334-16.097-24.334l-28.101 15.276s23.517 16.227 21.271 17.187c-2.246.961-7.41 6.798-10.356 14.617-2.943 7.82-8.54 26.727-11.779 31.601-3.238 4.876-6.616 7.298-6.616 7.298l5.586 19.662s7.82 4.085 8.57 1.911c-.34-2.46-.149-5.01.246-7.523.389-3.762 1.238-8.538 2.86-13.896 2.96-9.782 22.669-34.12 26.231-39.318 3.56-5.198 10.032-14.294 8.185-22.481" fill="#DC7E65"/>
        <path d="M162.167 324.066c-1.763-1.3-3.093-2.324-3.832-4.473-1.036-3.003-1.012-6.238-.585-9.439-1.012.162-6.955 1.02-8.407-.787-1.59-1.975-4.36-15.488-4.36-15.488s-4.524 2.66-5.83 5.264c-.527 1.046-.738 1.727-.762 2.526 1.507 2.882 2.795 5.354 3.955 8.381.135-.098.43.266.565.24 1.61-.312 5.326 15.739 8.205 17.071 1.923.891 8.293 1.092 12.127.347.169-.089.323-.19.455-.307.6-1.142-.493-2.57-1.53-3.335" fill="#DE4C54"/>
        <path d="M174.545 239.321c-1.276.435-2.574 1.549-3.652 2.374-.595.457.094 1.003.72.549a12.146 12.146 0 0 1 3.26-1.7c.754-.257.432-1.481-.328-1.223" fill="#C46855"/>
        <path d="M163.702 327.395c.192-.37.206-.771.102-1.17-2.819.691-6.209.345-8.982.199-1.152-.06-2.368-.143-3.327-.8-1.07-.735-1.603-2.04-2.024-3.287-1.605-4.77-2.452-9.913-5.183-14.114-1.072-1.648-2.406-3.103-3.486-4.743-.68-1.034-1.26-2.16-1.571-3.368-.064-.25-.114-.524-.174-.775l-.019.036c-.164.345-.304.693-.43 1.046-.525 1.636-.012 2.706.47 7.221.229 2.134-.104 4.285-.633 6.348-.262 1.024-.512 2.02-.895 3.013-.389 1.013-.816 2.011-1.15 3.043-.07.216-.126.48.028.647.062.066.15.104.234.138.75.306 1.6.645 2.403.741-.053-.68.112-1.43.194-2.105.09-.743.198-1.485.322-2.222.227-1.344.52-2.69 1.026-3.96.393-.984 1.106-2.76 2.304-2.993 1.61-.312 5.326 15.739 8.205 17.071 1.923.891 8.293 1.092 12.127.347.17-.09.325-.195.46-.313" fill="#242929"/>
        <path d="M69.24 234.504s-8.631 10.46-11.508 13.4c-2.877 2.943-11.95 12.154-19.302 25.228-7.353 13.075-13.304 23.148-16.18 26.091-2.878 2.943-4.796 2.288-6.074 6.538-1.28 4.249 5.434 8.171 5.434 8.171s11.828-13.727 21.098-22.88c9.27-9.152 15.024-13.73 17.901-17.978 2.877-4.249 11.161-10.647 21.61-19.218 12.744-10.454-12.979-19.352-12.979-19.352" fill="#DC7E65"/>
        <path d="M.339 319.006c.418.735 1.12 1.432 1.499 1.905.965 1.206 1.958 2.392 3.015 3.515.818.868 1.744 1.931 2.851 2.416 2.238.982 6.074.982 6.394 0 .32-.98-.64-4.248-.32-4.575.32-.326 6.074-1.961 8.631-5.883 2.557-3.922 2.877-8.826.959-10.46-1.918-1.635-9.59-.327-11.508 1.634-1.918 1.961-4.475 5.883-5.754 6.538-.723.369-1.493.651-2.238.972-1.163.505-2.64 1.023-3.521 1.997-.532.585-.386 1.278-.008 1.941" fill="#DE4C54"/>
        <path d="M16.801 317.474c-.162-.565-.506-1.058-.873-1.51a12.925 12.925 0 0 0-2.239-2.168c-.46-.347-.952-.67-1.503-.825-.962-.277-2.01-.02-2.886.468-.877.491-1.616 1.196-2.35 1.89-1.109 1.043-2.241 2.076-3.538 2.86-.55.332-1.15.625-1.789.643-.732.02-.967-.38-1.5-.76-.039-.028-.08-.046-.12-.064.017.329.147.667.336.998.418.735 1.12 1.432 1.499 1.905.965 1.206 1.958 2.392 3.015 3.515.04.043.254.087.294.129-.66.843-1.279 1.634-2.182 2.502-.615.589.057 1.197.63 1.602.563.397.856.439 1.135.17a.301.301 0 0 0 .105-.094c.584-.865 1.176-1.728 1.755-2.6.351.285.72.535 1.114.707.839.369 1.902.6 2.92.691-.001-.04.002-.08-.002-.12-.03-.278-.123-.547-.189-.817-.244-1.008-.106-2.091.285-3.049.35-.857.92-1.76 1.612-2.374.685-.607 1.884-.875 2.738-1.163.55-.187 1.14-.383 1.497-.852.355-.465.399-1.12.236-1.684" fill="#242929"/>
        <path d="M9.463 316.546c-1.43 2.983-3.557 5.833-5.808 8.307.248.218.499.435.748.651 2.27-2.46 3.994-5.615 5.38-8.63.226-.496-.081-.825-.32-.328" fill="#FFFFFE"/>
        <path d="M60.929 244.309s6.916-8.868 16.06-26.391c7.843-15.03 16.149-31.668 17.647-40.84 2.614-16.01 3.694-14.812 7.85-27.233.286-.856 1.382-1.658 2.416-2.804 2.84-3.15-12.886-12.958-8.17-17.788 10.297-10.55 38.01-19.276 38.039-19.285.68-.214 4.017 7.83 4.324 8.692 1.047 2.946 1.64 6.094 1.298 9.232-.34 3.106-1.825 5.943-2.45 9.03-1.118 5.513-2.823 14.198 1.66 18.649 1.561 1.548 2.948 2.597 3.533 4.866.443 1.715-.69 3.86-.136 5.4.264.732 1.204.955 1.789 1.495.495.455.895.996 1.156 1.625.186.45.144 2.274.334 2.462 0 0 23.336 22.88 39 45.106 0 0-12.148 4.251-33.885 27.784-21.738 23.535-40.278 41.186-62.015 30.4-21.737-10.787-28.45-30.4-28.45-30.4" fill="#E3A955"/>
        <path d="M185.917 217.832c-.346.104-.687.462-.95.637a275.655 275.655 0 0 0-4.097 2.804c-3.608 2.518-7.15 5.14-10.568 7.924a134.444 134.444 0 0 0-9.946 8.958c-7.782 7.757-14.3 16.596-21.704 24.695-7.39 8.08-16.034 14.643-26.924 16.538-10.844 1.885-22.111-.545-31.286-6.693-9.41-6.303-16.927-16.099-20.806-26.906-.233-.649-1.257-.372-1.026.29 3.419 9.794 8.913 18.46 16.906 25.01 8.279 6.787 18.936 10.725 29.562 10.697 11.007-.028 20.98-4.521 29.162-11.895 8.377-7.55 14.842-17.015 22.488-25.288.695-.75 1.394-1.5 2.1-2.245 3.075-3.247 6.237-6.408 9.516-9.439a154.215 154.215 0 0 1 10.102-8.585 139.111 139.111 0 0 1 6.786-4.952c.36-.246.936-.489 1.148-.895.148-.283.142-.647-.222-.684a.584.584 0 0 0-.24.029" fill="#E3A955"/>
        <path d="M90.775 104.783s-5.552 1.669-6.83 6.782c-1.279 5.114-1.918 5.434-3.197 8.63-1.279 3.196-1.918 9.588 6.074 12.784 9.977 3.99 16.303-9.908 16.303-9.908l-12.35-18.288" fill="#DC7E65"/>
        <path d="M95.293 111.086s-4.606 8.518-7.562 13.44c-.612 1.99-1.715 3.71-2.762 5.514-1.414 2.438-1.976 4.678-1.187 7.445.305 1.074.487 2.183.655 3.296.008.018.018.035.026.054.317.709.521 1.462.775 2.196a17.393 17.393 0 0 0 6.016 8.22c.56.415 1.197.813 1.892.78 1.009-.048 1.74-.96 2.246-1.834 1.555-2.684 2.33-5.734 3.445-8.63.11-.286.216-.539.332-.778.18.014.28.02.28.02l8.63-18.857-12.786-10.866" fill="#FFFFFE"/>
        <path d="M118.149 91.75s3.516 3.196 5.434 2.557c1.918-.64 5.115-2.557 9.27-6.712 4.156-4.154 14.386-7.99 23.336-18.217 8.952-10.227 9.27-13.104 19.819-23.97s17.262-16.3 18.54-19.815c1.279-3.516 1.279-10.227 2.239-11.186.96-.959 3.197-3.516 3.197-3.516l5.113 4.475-1.596 11.825s-4.797 5.753-6.075 7.99c-1.278 2.237-17.263 26.207-23.975 33.558-6.714 7.35-8.328 12.053-18.504 22.517-9.297 9.561-11.863 11.68-15.38 22.547-3.518 10.866-3.836 15.02-11.828 21.093-7.992 6.073-22.305 4.605-24.614 3.836-4.795-1.598-7.353-13.104-13.426-19.816-6.134-6.778-4.795-9.268-3.517-11.186 1.28-1.917 5.754-3.196 8.951-5.113 3.197-1.918 5.306-6.997 5.306-6.997l17.71-3.87" fill="#DC7E65"/>
        <path d="M91.676 119.978c-.343-.504-.641-1.056-1.04-1.514a102.86 102.86 0 0 0-1.55-1.744c-.64-.704-1.247-1.466-2.045-2.006-.203-.137-.486-.269-.679-.119-.128.1-.149.288-.092.438.056.15.173.27.285.385.857.885 1.65 1.817 2.317 2.843.523.804.992 1.644 1.533 2.437.521.763 1.797.048 1.271-.72" fill="#C46855"/>
        <path d="M113.544 139.321c-1.89-7.46-4.675-14.66-8.46-21.41-.203-.36-.082-.53.147-.53.256 0 .649.214.877.614 3.903 6.843 6.998 13.758 8.942 21.179-.506.059-1.009.108-1.506.147" fill="#D67860"/>
        <path d="M100.407 96.384s21.394-.292 18.86-3.515c-3.516-4.475-4.057-8.836-4.145-9.778l-.017-.228.081.001c.615-.003 4.585-.07 5.642-1.568.206-.292.262-.798.215-1.449a3.652 3.652 0 0 0-.029-.287 20.252 20.252 0 0 0-.716-3.247c-.285-.939-.425-1.877-.701-2.802-.621-2.078-1.39-4.13-2.484-6.009-.48-.821-1.018-1.703-1.66-2.408-.531-.583-1.2-1.037-1.722-1.623-.633-.712-.77-1.736-1.276-2.542-.353-.561-.872-.996-1.382-1.42-1.346-1.121-2.564-2.395-4.102-3.259-1.118-.627-2.354-1.079-3.633-1.219-.59-.064-1.276-.128-1.828.102-.616.258-1.134.744-1.62 1.188-1.782 1.623-3.106 3.753-4.283 5.833-2.263 4.003-4.053 8.292-5.601 12.616a52.69 52.69 0 0 0-.386 1.106s9.884 12.724 10.787 14.756c1.279 2.876 0 5.752 0 5.752" fill="#DC7E65"/>
        <path d="M103.432 54.958c.583.237 4.261 3.36 4.743 6.13.483 2.77-.481 3.795-.03 5.572.452 1.777 1.085 2.951.904 3.554-.102.342-.721.633-.987.818-.678.473-1.358.947-1.975 1.5-.32.289-.577.43-.682.859-.116.469-.024 1 .128 1.448.213.627.572 1.19.881 1.776 1.24 2.346 1.653 5.294.406 7.636-1.09 2.046-3.226 3.342-5.214 4.392-2.372 1.252-4.981.798-7.402-.082-.6-.218-1.243-.468-1.593-1.003-.212-.324-.294-.723-.526-1.033-.42-.559-1.191-.678-1.87-.843-1.602-.39-3.062-1.301-4.153-2.532-.913-1.031-2.019-2.398-2.423-3.728a23.92 23.92 0 0 1-1.008-7.611s-6.808 5.18-9.127.874c-2.32-4.307.21-6.174.21-6.174s-3.434-1.687-3.072-2.892c.361-1.204 1.536-1.837 1.536-1.837s-1.657-8.704 5.15-7.318c6.809 1.385 7.562 6.535 7.562 6.535s6.252-11.04 18.542-6.04" fill="#DE4C54"/>
        <path d="M83.14 71.097c2.466-2.236 3.335-6.409 1.87-9.406-.455-.932.642-.82 1.236.042 3.705 5.38 1.657 10.017-1.91 10.614-1.098.185-2.02-.502-1.195-1.25" fill="#6B282E"/>
        <path d="M103.46 70.875c.02-3.506 4.484-1.893 5.788-.228l.032.05a.78.78 0 0 1 .365.47c.2.676.383 1.355.533 2.043.12.55.283 1.151.266 1.725l.27.27c.34.338.309.755.096 1.06.033.524-.419 1.11-1.099.96-2.74-.604-6.27-3.227-6.251-6.35" fill="#DC7E65"/>
        <path d="M105.495 74.4c1.14 1.545 2.349 2.07 4.22 2.52.51.122.16 1.031-.334.943-2.007-.355-3.773-1.727-4.88-3.433-.253-.39.714-.41.994-.03M115.025 83.502c.056.113.072.241.1.364.064.276.182.39.45.409.19.013.382.003.57-.02 1.587-.199 3.148-1.252 4.27-2.344.62-.602.688-1.234.628-2.064a3.652 3.652 0 0 0-.029-.287c-.135.012-.285.118-.427.35-.115.19-.258.36-.418.514-1 .959-2.552 1.263-3.878 1.424-1.02.125-2.05.13-3.072.176a5.525 5.525 0 0 0-.756.088c.24.47.843.685 1.345.835.374.113.99.153 1.205.532l.012.023" fill="#C46855"/>
        <path d="M111.345 60.842a3.402 3.402 0 0 1-.033-.219c-.039-.327-.14-1.029.325-1.098.286-.042.683.202.783.476a.693.693 0 0 1 .016.304c-.044.453.033.994-.213 1.402-.148.245-.407.333-.558.053a3.121 3.121 0 0 1-.32-.918" fill="#DE4C54"/>
        <path d="M113.833 90.312c-5.114 0-13.028 4.738-13.028 4.738-.243.264-2.635 4.53-2.635 4.53s3.516-.32 7.672-1.917c4.155-1.598 9.59-4.794 12.786-4.155 3.197.64 3.517.64 3.517.64s-3.197-3.836-8.312-3.836" fill="#E3A955"/>
        <path d="M140.227 63.997c-.341-5.485.298-7.083.298-10.919-3.196-3.196-4.137-11.409-4.137-11.409l-4.967 14.249-1.931 3.68c-.26 1.075-.39 2.217-.43 3.407 1.427 2.473 3.415 5.647 5.072 7.971 1.452 2.037 3.516 4.794 5.115 6.392-.166-3.747.32-8.629.98-13.371" fill="#DC8A67"/>
        <path d="M108.526 42.393a49.26 49.26 0 0 1 1.63 3.543c1.78 4.307 3.696 8.69 6.322 12.557.908 1.337 1.989 2.882 3.472 3.632 2.654 1.343 7.684-.41 9.916-1.633 6.876-3.765 8.974-6.925 6.824-15.084 0 0 5.534-5.63 1.259-10.185-.692-.737-1.617-1.354-2.671-1.173-1.272.22-1.483.463-2.056-1.04-.425-1.118-.911-2.218-1.549-3.231-2.696-4.286-8.23-6.572-13.166-5.44-2.305.529-5.096 1.347-7.076 2.664-2.086 1.388-2.732 3.209-3.711 5.354-1.085 2.379-1.579 5.673-.253 8.053.372.666.723 1.323 1.059 1.983" fill="#DC8A67"/>
        <path d="M122.46 42.083c.12-.33.386-.608.724-.696 1.07-.277 2.01 1.32 1.354 2.162-.307.394-.896.56-1.343.337a1.335 1.335 0 0 1-.455-.396c-.257-.337-.404-.772-.337-1.19.012-.074.03-.147.056-.217" fill="#101212"/>
        <path d="M118.626 51.775a.611.611 0 0 1 .45-.725l.942-.211c.318-.072.65.13.725.45a.611.611 0 0 1-.45.725l-.942.211a.614.614 0 0 1-.725-.45" fill="#D5644F"/>
        <path d="M118.608 36.628c.84-.068 1.662-.267 2.506-.29.857-.022 1.715.063 2.571.074.773.01.826 1.214.046 1.205-.856-.01-1.714-.1-2.57-.073-.845.025-1.667.22-2.507.288-.773.063-.82-1.142-.046-1.204M111.678 42.146a.58.58 0 0 0-1.014-.499c-.048.06-1.175 1.458-1.544 3.293a.579.579 0 0 0 .452.683.57.57 0 0 0 .683-.451c.321-1.555 1.3-2.784 1.31-2.796a.574.574 0 0 0 .113-.23" fill="#6B282E"/>
        <path d="M99.143 34.322c.697 3.144 3.436 5.58 6.8 4.953.065-.012.135-.03.202-.045-1.485-.074-2.943-.71-3.985-1.775-1.59-1.623-2.252-4.136-1.725-6.317.123-.505.367-.974.666-1.4.691-.985 1.7-1.73 2.823-2.154a6.273 6.273 0 0 1 1.705-.386c.434-.035 1.196.176 1.574-.05.392-.236.41-.974.552-1.37.2-.56.473-1.096.8-1.593.65-.983 1.53-1.84 2.583-2.38 1.58-.814 3.402-1.037 5.179-1.012 2.27.03 4.534.446 6.667 1.223.146.053.894.445.872.642.038-.352.141-.755.464-.9.33-.15.733.071.911.387.178.316.19.695.197 1.058a3.139 3.139 0 0 1 1.932-1.293c.314-.065.657-.078.944.065.286.144.494.481.406.79-.052.182-.192.324-.332.45-.383.342-.806.593-1.24.859.28.043.482.022.759.125a10.909 10.909 0 0 1 2.356 1.221c.966.667 1.821 1.505 2.464 2.49.064.098.127.198.187.3.637 1.075 1.017 2.28 1.394 3.471l.697 2.21c.016.05.032.11 0 .154-.02.03-.058.044-.094.055-.669.219-1.224.556-1.699 1.092-.467.527-.615 1.06-.771 1.722-.116 1.466.49 2.96 1.12 4.252.308.637.629 1.296.927 1.907 1.323 2.719 2.12 5.68 2.192 8.702.159 6.613-2.725 11.708-8.13 13.633-9.536 3.395-12.589-5.879-13.238-8.44a1.48 1.48 0 0 1 .297-1.318c.731-.873 2.3-2.036 5.162-2.777 2.991-.775 5.698.235 8.158-3.538 1.07-1.641 1.272-3.755 1.274-5.665 0-.962-.09-1.91-.174-2.867-.077-.875-.135-1.18-.946-1.7a5.828 5.828 0 0 1-1.97-2.12c-.222-.41-.398-.852-.703-1.204-.38-.438-.922-.696-1.447-.94l-3.093-1.442c-.769-.358-1.59-.725-2.432-.617-.727.093-1.357.529-2.021.838-1.058.494-2.137.76-3.289.871a.434.434 0 0 0-.209.057l-.008.01c-1.014 3.057-5.473 5.859-8.533 6.068-3.721.254-6.684-2.52-7.46-6.013-.177-.796 1.058-1.088 1.235-.29" fill="#6B282E"/>
        <path d="M112.835 47.61c.004.081 0 .163-.004.244-.02.322-.077.658-.277.911-.51.647-1.45.124-1.694-.506-.236-.61.196-1.79 1-1.702.184.02.344.134.488.251.186.152.367.326.442.553.027.08.04.165.045.25" fill="#101212"/>
        <path d="M119.549 56.073c.753-.437 5.599-2.078 6.397-2.14.345 3.075-3.371 7.31-6.397 2.14M227.475 67.78c1.278-2.557-5.115-38.672-5.115-38.672s-20.16-9.286-20.458-.32c-.32 9.589 5.433 27.806 5.115 31.002-.32 3.196.318 7.67.639 12.465.318 4.794 10.228 14.382 17.581 10.227 7.353-4.155 2.238-14.702 2.238-14.702" fill="#FFFFFE"/>
        <path d="M212.971 1.105c-1.683-.785-3.52 1.243-3.925 2.662-.1.347.105.589.365.667.29.41.595.812.924 1.193.318.369.677.838 1.1 1.119.184.47 1.087.513 1.198-.084.122-.67.29-1.31.59-1.925.217-.439.47-.849.58-1.33.184-.815.004-1.914-.832-2.302" fill="#CE7C5B"/>
        <path d="M209.894 24.634s11.827 2.557 12.466 4.474c.639 1.918-9.962 1.93-9.962 1.93l-2.504-6.404" fill="#9AAEB9"/>
        <path d="M201.902 28.789s.549-7.682.957-10.547c.32-2.237-1.95-5.55-2.556-5.753-.96-.32-2.557.959-2.557.959s-.639-1.598 0-2.876c.64-1.279 1.597-1.279 1.597-1.279s-1.597-2.557.96-3.515c0 0 0-3.836 2.238-3.196 0 0 1.599-2.877 2.877-2.557 1.278.32 7.671 5.113 8.31 7.031.64 1.918-.639 9.268-.639 10.866 0 1.598.64 13.104.64 13.104s-7.993.32-11.827-2.237" fill="#DC8A67"/>
        <path d="M213.813 7.173c-.088-.607-1.14-.47-1.08.146.118 1.203-.872 1.54-1.695 2.087-.617.41-.836 1.046-1.405 1.52-1.084.905-2.188 1.472-2.923 2.755-.284.496.413 1.077.812.626.743-.837 1.446-1.572 2.38-2.197.785-.525 1.128-1.263 1.865-1.804 1.206-.886 2.296-1.4 2.046-3.133" fill="#CE7C5B"/>
        <path d="M214.368 31.026s-.319-4.155-1.032-7.392c-1.992 1.876-11.01-.217-11.01-.217-.238 2.75-.424 5.372-.424 5.372 3.834 2.557 12.466 2.237 12.466 2.237" fill="#242929"/>
        <path d="M208.14 70.842c-.588-3.36-.524-6.644-.749-10.024-.034-.536-.907-.74-1.005-.136-.543 3.41-.01 7.1.685 10.455.146.704 1.192.4 1.07-.295" fill="#DAE2DF"/>
        <path d="M109.272 145.688c-.362-2.994-4.815-6.089-7.746-8.874-2.93-2.786-5.353-7.722-6.393-9.268-.656-.976-3.128-.96-5.687-.818-.425.293-.853.583-1.28.88-2.316 1.607-3.775 3.397-4.237 6.237-.039.242-.086.484-.137.724.174 1.222.61 2.17.814 2.734.461 1.275-3.21 3.084.307 12.145 3.518 9.062 15.828 14.239 15.828 14.239s8.892-15.006 8.53-18" fill="#FFFFFE"/>
        <path d="M100.728 152.633s-3.307 10.918.83 11.318c3.724.36 8.701-9.48 8.701-9.48l-9.53-1.838" fill="#9AAEB9"/>
        <path d="M100.492 153.412s5.446 5.049 15.39 7.47c9.943 2.42 14.643 3.446 15.114 1.885.473-1.56-4.79-2.564-4.79-2.564s9.026-.607 9.781-2.016c.753-1.409-.222-2.294-.222-2.294s1.75-1.238 1.639-2.385c-.11-1.147-1.389-1.469-1.389-1.469s1.723-2.009-.302-2.895c-2.024-.887-13.647.506-15.62-.55-1.973-1.055 6.228-2.83 6.72-5.103.493-2.274-3.25-1.377-5.414-.723-2.164.655-7.025.549-8.365.758-1.933.3-3.579 1.27-5.873 1.492-2.295.223-5.383 3.283-6.669 8.394" fill="#DC8A67"/>
        <path d="M106.54 145.15c-2.201.65-5.333 3.17-6.292 9.242 0 0 1.598 1.598 5.434 2.557-4.556-4.448-1.28-10.245.859-11.8" fill="#242929"/>
        <path d="M208.652 231.735c-.004-.014.12-.076.368-.188.25-.108.62-.266 1.102-.475.968-.41 2.384-1.015 4.168-1.833 1.779-.82 3.925-1.855 6.29-3.209a45.781 45.781 0 0 0 3.661-2.317c1.242-.88 2.507-1.873 3.657-3.067a13.46 13.46 0 0 0 1.59-1.951c.471-.71.872-1.48 1.12-2.312a6.065 6.065 0 0 0 .21-2.59 6.205 6.205 0 0 0-.324-1.286 3.683 3.683 0 0 0-.707-1.096c-.595-.687-1.368-1.264-2.174-1.8a27.457 27.457 0 0 0-2.574-1.473c-1.792-.91-3.695-1.714-5.654-2.472-3.921-1.514-8.073-2.846-12.316-4.122a425.54 425.54 0 0 0-12.957-3.62c-8.73-2.305-17.527-4.439-25.808-6.418-8.288-1.957-16.054-3.79-22.754-5.37a2837.297 2837.297 0 0 1-23.107-5.513c-.281-.072-2.7-.677-6.719-1.686a1064.617 1064.617 0 0 1-16.277-4.247c-6.648-1.797-14.337-3.946-22.472-6.496a309.962 309.962 0 0 1-12.445-4.17c-4.2-1.52-8.428-3.168-12.554-5.058a84.528 84.528 0 0 1-6.077-3.06c-1.973-1.112-3.895-2.316-5.664-3.721a21.204 21.204 0 0 1-2.492-2.296 22.804 22.804 0 0 1-2.044-2.654c-1.225-1.845-2.172-3.898-2.53-6.063-.371-2.16-.102-4.378.65-6.328.747-1.962 1.91-3.664 3.199-5.14 1.292-1.48 2.723-2.745 4.17-3.867a46.317 46.317 0 0 1 4.377-2.973c2.905-1.743 5.702-3.087 8.215-4.181a91.907 91.907 0 0 1 6.613-2.565 83.76 83.76 0 0 1 4.345-1.376c.506-.142.895-.247 1.16-.31.264-.066.402-.092.405-.08.004.014-.126.067-.382.158l-1.134.388c-.994.339-2.451.834-4.286 1.522a102.008 102.008 0 0 0-6.528 2.696c-2.479 1.134-5.236 2.513-8.084 4.278a46.246 46.246 0 0 0-4.273 2.987c-1.408 1.12-2.79 2.373-4.023 3.82-1.23 1.441-2.32 3.084-2.999 4.932-.685 1.84-.91 3.885-.546 5.887.351 2.006 1.257 3.931 2.445 5.685a21.93 21.93 0 0 0 1.975 2.518c.724.78 1.538 1.495 2.395 2.165 1.719 1.34 3.609 2.505 5.557 3.58a83.9 83.9 0 0 0 6.022 2.971c4.1 1.838 8.313 3.444 12.502 4.924a311.5 311.5 0 0 0 12.423 4.067c8.126 2.488 15.812 4.585 22.46 6.34a1140.655 1140.655 0 0 0 16.277 4.152c4.02.988 6.44 1.583 6.72 1.65.562.141 9.679 2.407 23.067 5.634l22.726 5.514c8.272 2.037 17.06 4.237 25.787 6.615 4.362 1.192 8.71 2.427 12.96 3.74 4.249 1.318 8.404 2.694 12.347 4.26 1.97.787 3.887 1.62 5.708 2.568.908.477 1.793.982 2.633 1.547.835.57 1.647 1.181 2.312 1.965.337.384.631.821.823 1.324a6.742 6.742 0 0 1 .082 4.347c-.284.909-.729 1.732-1.236 2.475a13.796 13.796 0 0 1-1.693 2.018c-1.206 1.22-2.51 2.211-3.784 3.084a46.31 46.31 0 0 1-3.743 2.282 74.036 74.036 0 0 1-6.393 3.089 90.263 90.263 0 0 1-4.238 1.69c-.493.183-.873.313-1.132.4-.258.085-.392.123-.398.111" fill="#FFFFFE"/>
        <path d="M228.229 204.308c-.015.024-.413-.142-1.1-.45-.68-.323-1.68-.723-2.87-1.222-2.4-.958-5.654-2.108-8.956-3.16-3.297-1.06-6.641-2.022-9.184-2.744a372.409 372.409 0 0 0-4.39-1.213c-.106-.03-1.84-.52-4.383-1.234a905.315 905.315 0 0 0-9.253-2.512l-9.188-2.436c-1.25-.33-2.29-.611-3.015-.817-.726-.205-1.136-.333-1.13-.359.006-.028.43.048 1.168.202.737.155 1.789.387 3.051.673a628.538 628.538 0 0 1 18.559 4.54c2.558.663 4.298 1.145 4.406 1.173.108.028 1.845.521 4.382 1.278 2.534.762 5.87 1.781 9.156 2.915 3.288 1.122 6.525 2.36 8.897 3.407 1.179.547 2.16.994 2.821 1.364.666.357 1.04.57 1.029.595M128.077 188.067c-.004.016-.212-.016-.601-.092-.387-.076-.954-.197-1.675-.353a498.242 498.242 0 0 1-5.964-1.356 1019.979 1019.979 0 0 1-18.092-4.393 716.724 716.724 0 0 1-18.157-4.823c-4.984-1.403-8.366-2.43-8.575-2.492-.206-.072-3.587-1.094-8.492-2.75-1.229-.407-2.544-.882-3.937-1.363-1.384-.504-2.847-1.021-4.342-1.596-2.995-1.136-6.157-2.408-9.253-3.82-3.095-1.412-6.128-2.965-8.82-4.675-2.685-1.705-5.061-3.586-6.613-5.638-1.575-2.01-2.54-3.938-2.999-5.348a11.436 11.436 0 0 1-.433-1.664c-.067-.39-.082-.602-.066-.604.049-.01.17.83.696 2.197.516 1.367 1.52 3.227 3.117 5.167 1.562 1.964 3.92 3.758 6.604 5.399 2.689 1.642 5.72 3.137 8.814 4.497 3.095 1.36 6.258 2.586 9.254 3.682 1.494.556 2.958 1.055 4.342 1.544 1.394.463 2.708.923 3.938 1.314 4.906 1.603 8.288 2.596 8.494 2.666.208.062 3.573 1.114 8.534 2.564a819.314 819.314 0 0 0 18.079 5.034 2182.813 2182.813 0 0 0 18.004 4.71l5.916 1.544c.712.19 1.271.344 1.652.455.379.11.58.176.575.194" fill="#FFFFFE"/>
        <path d="M79.522 189.633c-.205-2.766-.923-10.386-.967-10.825-.068-.667-8.931 3.812-8.926 3.98.106 3.472.92 10.463.92 10.463-1.357-.084-2.994 1.006-3.681 2.021-.255.377-.457.833-.359 1.276.131.597.76.96 1.364 1.044 1.175.164 2.336-.449 3.197-1.264.613-.58.782-1.356.817-2.232-.23-2.934-.876-8.854-.876-8.854 2.996-1.544 4.282-2.255 6.634-3.052.163 2.261.337 4.523.54 6.782-1.34-.038-2.929 1.032-3.603 2.028-.255.376-.457.833-.359 1.278.131.594.76.957 1.364 1.041 1.175.166 2.336-.447 3.197-1.262.671-.637.782-1.358.738-2.424" fill="url(#2e55bxe25a)"/>
        <path d="M66.57 105.67a446.801 446.801 0 0 0-.528-5.906c-.037-.365-4.874 2.08-4.871 2.171.058 1.895.502 5.71.502 5.71-.74-.046-1.633.548-2.009 1.103-.139.205-.249.454-.195.696.071.325.414.523.744.57.64.09 1.275-.245 1.744-.69.335-.317.427-.74.446-1.219-.125-1.601-.478-4.83-.478-4.83 1.635-.843 2.337-1.232 3.62-1.666.09 1.234.184 2.468.295 3.7-.731-.02-1.598.564-1.966 1.107-.14.206-.25.455-.196.697.072.325.415.523.744.57.641.09 1.275-.246 1.745-.69.366-.347.427-.741.402-1.323" fill="url(#ao1xdw79qb)"/>
        <path d="M210.665 178.35c.345-.263.613-.63.75-1.04-.804.367-1.842.122-2.397-.567-.218-.274-.368-.607-.63-.84-.353-.314-.864-.398-1.331-.332-1.53.219-1.389 1.026-1.387 2.314.002 1.176.032 2.352.068 3.525.047 1.46.105 2.921.179 4.381-1.228-.156-2.78.74-3.462 1.623-.255.328-.463.731-.401 1.14.084.549.635.915 1.178 1.027 1.058.219 2.15-.272 2.981-.963.591-.491.79-1.188.872-1.981a207.167 207.167 0 0 0-.16-5.23c-.008-.185-.03-3.79.038-3.76.545.234.967.695 1.506.941a2.186 2.186 0 0 0 1.76.018c.154-.068.3-.154.436-.256" fill="url(#6v676j71bc)"/>
        <path d="m43.176 142.128.044.036c.4.295.795-.104.874-.5.067-.34-.063-.761-.1-1.104-.088-.852-.178-1.704-.269-2.555-.177-1.663-.346-3.327-.558-4.986-.025-.196-.05-.393-.08-.588 1.275.032 2.771-1.043 3.382-2.018.226-.362.4-.796.293-1.208-.143-.554-.745-.873-1.313-.932-1.106-.115-2.174.498-2.954 1.29-.555.565-.687 1.299-.69 2.12.354 3.1.655 6.205.963 9.308.038.387.09.866.408 1.137" fill="url(#b8a3l85whd)"/>
        <path d="m218.333 212.267-.03-.016c-.273-.116-.445.168-.437.406.006.205.138.431.204.623l.5 1.44c.326.936.646 1.874.99 2.803.043.11.083.22.127.329-.741.152-1.46.973-1.68 1.618-.083.24-.125.513-.009.737.158.3.547.405.884.363.655-.082 1.188-.581 1.53-1.144.247-.399.223-.841.115-1.316-.62-1.74-1.213-3.494-1.806-5.242-.074-.219-.168-.487-.388-.601" fill="url(#24cvi284te)"/>
        <path d="M228.45 84.415c-1.26 2.234-3.712 3.308-6.22 2.89-.56-.093-.812.721-.239.867 2.89.737 5.9-.673 7.361-3.23.335-.585-.57-1.113-.901-.527M137.484 295.273c-1.615 1.664-3.246 3.53-3.216 5.98.006.644 1.008.646 1.004 0-.014-2.166 1.52-3.79 2.947-5.245.469-.479-.268-1.216-.735-.735" fill="#1E2639"/>
    </g>
</svg>
