<svg width="540" height="343" viewBox="0 0 540 343" xmlns="http://www.w3.org/2000/svg">
    <defs>
        <radialGradient cx="50%" cy="50.255%" fx="50%" fy="50.255%" r="49.745%" gradientTransform="matrix(0 1 -1.51775 0 1.263 .003)" id="5a8o29ruca">
            <stop stop-color="#F7F7F7" offset="0%"/>
            <stop stop-color="#171616" offset="100%"/>
        </radialGradient>
    </defs>
    <g transform="translate(2 2)" fill="none" fill-rule="evenodd">
        <rect stroke="url(#5a8o29ruca)" stroke-width="3" fill="#000" width="536" height="339" rx="24"/>
        <g fill-rule="nonzero">
            <path d="M75.728 124C58.225 123.952 44 109.777 44 92.36V79.175a2.637 2.637 0 0 1 2.637-2.637h8.086a5.273 5.273 0 0 1 5.273 5.274v10.345c0 8.71 6.955 15.936 15.664 16.02 8.795.086 15.977-7.043 15.977-15.819v-2.636a2.637 2.637 0 0 1 2.637-2.637h10.546a2.637 2.637 0 0 1 2.637 2.637v2.368c0 17.451-14.278 31.957-31.73 31.909z" fill="#FBC8A1"/>
            <path d="M104.82 87.086H94.274a2.637 2.637 0 0 0-2.637 2.637v2.636c0 3.227-.972 6.23-2.637 8.735v19.965c10.87-5.095 18.457-16.248 18.457-28.968v-2.368a2.637 2.637 0 0 0-2.637-2.637z" fill="#F7B571"/>
            <path d="M131.363 81.46h-8.086a5.273 5.273 0 0 1-5.273-5.273V65.842c0-8.71-6.955-15.936-15.664-16.02-8.795-.086-15.977 7.043-15.977 15.819v2.636a2.637 2.637 0 0 1-2.636 2.637H73.18a2.637 2.637 0 0 1-2.637-2.637V65.91c0-17.451 14.278-31.957 31.73-31.909C119.774 34.048 134 48.223 134 65.64v13.184a2.637 2.637 0 0 1-2.637 2.637z" fill="#FBC8A1"/>
            <path d="M102.272 34A30.99 30.99 0 0 0 89 36.941v19.965c2.863-4.307 7.779-7.139 13.34-7.085 8.71.085 15.664 7.312 15.664 16.021v10.345a5.273 5.273 0 0 0 5.273 5.274h8.086A2.637 2.637 0 0 0 134 78.824V65.641c0-17.418-14.225-31.593-31.728-31.641z" fill="#F7B571"/>
            <path d="M54.547 60.367C48.73 60.367 44 55.636 44 49.82c0-5.815 4.731-10.547 10.547-10.547 5.815 0 10.547 4.732 10.547 10.547 0 5.816-4.732 10.547-10.547 10.547zM123.453 118.727c-5.815 0-10.547-4.732-10.547-10.547 0-5.816 4.732-10.547 10.547-10.547 5.816 0 10.547 4.731 10.547 10.547 0 5.815-4.731 10.547-10.547 10.547z" fill="#60C9BD"/>
            <path d="M75.693 113.453c-11.64-.067-20.97-9.686-20.97-21.326V76.54h13.183a2.637 2.637 0 0 1 2.637 2.637v13.071c0 2.87 2.246 5.298 5.114 5.384a5.28 5.28 0 0 0 5.433-5.272V65.873c0-11.64 9.33-21.259 20.97-21.326 11.688-.067 21.217 9.421 21.217 21.094v15.82h-13.183a2.637 2.637 0 0 1-2.637-2.637V65.753c0-2.87-2.245-5.298-5.114-5.384a5.28 5.28 0 0 0-5.433 5.272v26.718c0 11.673-9.53 21.161-21.217 21.094z" fill="#FF845D"/>
            <path d="M102.06 44.547c-4.951.029-9.485 1.787-13.06 4.693v59.573c4.82-3.87 7.91-9.807 7.91-16.454V65.641a5.28 5.28 0 0 1 5.433-5.271c2.869.085 5.114 2.513 5.114 5.383v13.071a2.637 2.637 0 0 0 2.637 2.637h13.183V65.64c0-11.673-9.53-21.161-21.217-21.094z" fill="#FF6635"/>
        </g>
        <text font-family="GolosText-Medium, Golos Text" font-size="52" font-weight="400" fill="#FFF" transform="translate(44 34)">
                                        <tspan x="128" y="65">Collaborate</tspan>
                                    </text>
        <text font-family="Nunito-Regular, Nunito" font-size="22" fill="#C8CBD3" transform="translate(44 34)">
                                    <tspan x="0" y="173">Create projects, find the right artists, and </tspan>
                                    <tspan x="0" y="203">collaborate smoothly using Collab Space with </tspan>
                                    <tspan x="0" y="233">access to collaboration tools</tspan>
                                </text>
        <path stroke="#EBEBEB" opacity=".163" d="M44 154.5h447"/>
    </g>
</svg>
