<svg width="540" height="343" viewBox="0 0 540 343" xmlns="http://www.w3.org/2000/svg">
    <defs>
        <radialGradient cx="50%" cy="50.255%" fx="50%" fy="50.255%" r="49.745%" gradientTransform="matrix(0 1 -1.51775 0 1.263 .003)" id="az2450852a">
            <stop stop-color="#F7F7F7" offset="0%"/>
            <stop stop-color="#171616" offset="100%"/>
        </radialGradient>
    </defs>
    <g transform="translate(2 2)" fill="none" fill-rule="evenodd">
        <rect stroke="url(#az2450852a)" stroke-width="3" fill="#000" width="536" height="339" rx="24"/>
        <g fill-rule="nonzero">
            <path d="M92 112.75a2.81 2.81 0 0 0-2.813 2.813v5.624A2.81 2.81 0 0 0 92 124a2.81 2.81 0 0 0 2.812-2.813v-5.624A2.81 2.81 0 0 0 92 112.75z" fill="#CFE6E6"/>
            <path d="M94.812 121.188v-5.626A2.81 2.81 0 0 0 92 112.75V124a2.81 2.81 0 0 0 2.812-2.813z" fill="#A3C6CC"/>
            <path d="M92 104.313H77.937c0 7.753 6.307 14.062 14.063 14.062s14.062-6.309 14.062-14.063H92z" fill="#E6F2F2"/>
            <path d="M106.062 104.313H92v14.062c7.756 0 14.062-6.309 14.062-14.063z" fill="#CFE6E6"/>
            <path d="M92 34c-17.087 0-30.938 13.851-30.938 30.938 0 12.017 6.866 22.41 16.875 27.533v11.841h28.125V92.472c10.01-5.124 16.875-15.517 16.875-27.534C122.937 47.852 109.087 34 92 34z" fill="#FFEA80"/>
            <path d="M106.062 92.47c10.01-5.123 16.875-15.516 16.875-27.532C122.937 47.85 109.087 34 92 34v70.313h14.062V92.47z" fill="#FFD24D"/>
            <path d="M52.625 67.75h-5.813A2.81 2.81 0 0 1 44 64.937a2.81 2.81 0 0 1 2.812-2.812h5.813a2.81 2.81 0 0 1 2.812 2.813 2.81 2.81 0 0 1-2.812 2.812z" fill="#FFEA80"/>
            <path d="M137.187 67.75h-5.812a2.81 2.81 0 0 1-2.813-2.813 2.81 2.81 0 0 1 2.813-2.812h5.812A2.81 2.81 0 0 1 140 64.938a2.81 2.81 0 0 1-2.813 2.812z" fill="#FFD24D"/>
            <path d="M50.598 88.844A2.81 2.81 0 0 1 51.625 85l4.867-2.812c1.324-.775 3.06-.322 3.84 1.03a2.81 2.81 0 0 1-1.028 3.842l-4.866 2.813a2.812 2.812 0 0 1-3.84-1.03z" fill="#FFEA80"/>
            <path d="M123.668 46.656a2.81 2.81 0 0 1 1.027-3.842L129.562 40a2.81 2.81 0 0 1 3.84 1.03 2.81 2.81 0 0 1-1.027 3.843l-4.868 2.812a2.812 2.812 0 0 1-3.84-1.03z" fill="#FFD24D"/>
            <path d="m56.492 47.686-4.867-2.812a2.81 2.81 0 0 1-1.027-3.843 2.816 2.816 0 0 1 3.84-1.03l4.866 2.813a2.81 2.81 0 0 1 1.028 3.842 2.811 2.811 0 0 1-3.84 1.03z" fill="#FFEA80"/>
            <path d="m129.562 89.874-4.867-2.813a2.81 2.81 0 0 1-1.027-3.842 2.82 2.82 0 0 1 3.84-1.03L132.374 85a2.81 2.81 0 0 1 1.027 3.843 2.811 2.811 0 0 1-3.84 1.03zM106.277 61.683a2.814 2.814 0 0 0-2.27-1.914l-6.613-.962-2.96-5.993c-.459-.932-1.44-1.392-2.434-1.42-1.055-.03-2.123.43-2.61 1.42l-2.96 5.993-6.614.962a2.808 2.808 0 0 0-1.555 4.795l4.785 4.667-1.131 6.586a2.807 2.807 0 0 0 1.12 2.75 2.809 2.809 0 0 0 2.961.213L92 75.717l5.828 3.063a2.804 2.804 0 0 0 2.96-.214 2.807 2.807 0 0 0 1.121-2.75l-1.131-6.586 4.784-4.666a2.808 2.808 0 0 0 .715-2.881z" fill="#FFD24D"/>
            <path d="M100.789 78.566a2.807 2.807 0 0 0 1.12-2.75l-1.131-6.585 4.784-4.667a2.809 2.809 0 0 0-1.554-4.795l-6.614-.962-2.96-5.993c-.459-.932-1.44-1.392-2.434-1.42v24.324l5.828 3.062a2.805 2.805 0 0 0 2.96-.214z" fill="#FA3"/>
            <path d="M108.875 101.5h-33.75a2.81 2.81 0 0 0-2.813 2.813 2.81 2.81 0 0 0 2.813 2.812h33.75a2.81 2.81 0 0 0 2.812-2.813 2.81 2.81 0 0 0-2.812-2.812z" fill="#CFE6E6"/>
            <path d="M111.687 104.313a2.81 2.81 0 0 0-2.812-2.813H92v5.625h16.875a2.81 2.81 0 0 0 2.812-2.813z" fill="#A3C6CC"/>
        </g>
        <text font-family="GolosText-Medium, Golos Text" font-size="52" font-weight="400" fill="#FFF" transform="translate(44 34)">
                                            <tspan x="128" y="65">Inspire</tspan>
                                        </text>
        <text font-family="Nunito-Regular, Nunito" font-size="22" fill="#C8CBD3" transform="translate(44 34)">
                                        <tspan x="0" y="173">Inspire and be inspired within a global </tspan>
                                        <tspan x="0" y="203">network of artists from all art forms, all ready </tspan>
                                        <tspan x="0" y="233">to share, learn, and thrive together</tspan>
                                    </text>
        <path stroke="#EBEBEB" opacity=".163" d="M44 154.5h447"/>
    </g>
</svg>
